<?xml version="1.0" encoding="utf-8"?>
<!-- Generator: Adobe Illustrator 24.3.0, SVG Export Plug-In . SVG Version: 6.00 Build 0)  -->
<svg version="1.1" id="Layer_4" xmlns="http://www.w3.org/2000/svg" xmlns:xlink="http://www.w3.org/1999/xlink" x="0px" y="0px"
	 viewBox="0 0 2742.12 435.98" enable-background="new 0 0 2742.12 435.98" xml:space="preserve">
<g>
	<path fill="#FF7F00" d="M237,67c-95.39,0-173,75.36-173,168c0,47.35,20.27,90.19,52.84,120.75h23.24
		C102.93,327.73,79,284.02,79,235c0-84.36,70.88-153,158-153s158,68.64,158,153c0,49.02-23.93,92.73-61.08,120.75h23.24
		C389.73,325.19,410,282.35,410,235C410,142.36,332.39,67,237,67z"/>
	<path fill="#FF7F00" d="M411.25,394.28C451.79,350.77,474,294.58,474,235c0-62.78-24.66-121.81-69.44-166.19
		C359.8,24.44,300.29,0,237,0S114.2,24.44,69.44,68.81C24.66,113.19,0,172.22,0,235c0,56.83,20.21,110.58,57.25,153.18v-24.21
		C30.68,327.71,15,283.13,15,235c0-121.31,99.59-220,222-220s222,98.69,222,220c0,51.37-17.86,98.68-47.75,136.16V394.28z"/>
	<g>
		<g>
			<path fill="#009B66" d="M291.75,178.75c14.64,0,26.5-11.86,26.5-26.5s-11.86-26.5-26.5-26.5c-4.44,0-8.62,1.1-12.3,3.03
				c0,0-0.04,0.02-0.12,0.06c-0.11,0.06-0.22,0.12-0.33,0.18c-4.5,2.45-41.57,24.37-38.76,80.74c0,8,4,8,8,2
				S270.25,179.75,291.75,178.75z"/>
			<path fill="#009B66" d="M358.39,223.6c-2.27-3.81-5.35-6.85-8.89-9.02c0,0-0.04-0.02-0.11-0.07c-0.11-0.07-0.21-0.13-0.32-0.19
				c-4.41-2.61-42.21-23.25-89.2,8.01c-6.87,4.09-4.83,7.53,2.37,7.9c7.2,0.37,38.75,2.53,50.61,20.49
				c7.49,12.57,23.75,16.7,36.33,9.21S365.88,236.17,358.39,223.6z"/>
			<path fill="#009B66" d="M258.12,244.98c-6.99-3.89-8.94-0.39-5.64,6.02s17.28,34.78,7.7,54.05
				c-7.11,12.79-2.51,28.93,10.28,36.04c12.79,7.11,28.93,2.51,36.04-10.28c2.16-3.88,3.23-8.07,3.33-12.22c0,0,0-0.05,0-0.13
				c0-0.13,0.01-0.25,0.01-0.38C309.9,312.97,308.76,269.91,258.12,244.98z"/>
			<path fill="#009B66" d="M230.67,252.71c-3.94,6.04-21.67,32.23-43.15,33.45c-14.63,0.15-26.38,12.14-26.22,26.77
				c0.15,14.63,12.14,26.38,26.77,26.22c4.44-0.05,8.61-1.19,12.26-3.15c0,0,0.04-0.02,0.11-0.06c0.11-0.06,0.22-0.12,0.33-0.18
				c4.47-2.49,41.32-24.8,37.91-81.14C238.61,246.62,234.61,246.67,230.67,252.71z"/>
			<path fill="#009B66" d="M218.65,242.77c6.82-4.18,4.73-7.59-2.47-7.87c-7.21-0.28-38.78-2.04-50.87-19.85
				c-7.65-12.48-23.96-16.4-36.44-8.75c-12.48,7.65-16.4,23.96-8.75,36.44c2.32,3.79,5.44,6.78,9.01,8.9c0,0,0.04,0.02,0.11,0.07
				c0.11,0.06,0.22,0.13,0.32,0.19C133.99,254.47,172.06,274.63,218.65,242.77z"/>
			<path fill="#009B66" d="M219.92,220.59c7.04,3.79,8.94,0.27,5.56-6.09s-17.74-34.55-8.42-53.95c6.94-12.88,2.12-28.96-10.76-35.9
				s-28.96-2.12-35.9,10.76c-2.11,3.91-3.12,8.11-3.17,12.26c0,0,0,0.05,0,0.13c0,0.13,0,0.25,0,0.38
				C167.25,153.3,168.96,196.33,219.92,220.59z"/>
		</g>
	</g>
	<g>
		<polygon fill="#009B66" points="133.52,435.43 133.52,429.13 137.77,429.13 137.77,374.74 133.52,374.74 133.52,368.44 
			150.04,368.44 150.04,374.74 145.79,374.74 145.79,429.13 150.04,429.13 150.04,435.43 		"/>
		<path fill="#009B66" d="M144.8,373.74v56.39h4.25v4.3h-14.52v-4.3h4.25v-56.39h-4.25v-4.3h14.52v4.3H144.8z"/>
		<polygon fill="#009B66" points="187.36,435.43 187.36,429.13 191.61,429.13 191.61,374.74 187.36,374.74 187.36,368.44 
			203.88,368.44 203.88,374.74 199.63,374.74 199.63,429.13 203.88,429.13 203.88,435.43 		"/>
		<path fill="#009B66" d="M198.63,373.74v56.39h4.25v4.3h-14.52v-4.3h4.25v-56.39h-4.25v-4.3h14.52v4.3H198.63z"/>
		<polygon fill="#009B66" points="241.2,435.43 241.2,429.13 245.45,429.13 245.45,374.74 241.2,374.74 241.2,368.44 257.72,368.44 
			257.72,374.74 253.47,374.74 253.47,429.13 257.72,429.13 257.72,435.43 		"/>
		<path fill="#009B66" d="M252.47,373.74v56.39h4.25v4.3H242.2v-4.3h4.25v-56.39h-4.25v-4.3h14.52v4.3H252.47z"/>
		<polygon fill="#009B66" points="305.14,435.43 305.14,429.13 309.38,429.13 309.38,375.31 292.63,375.31 292.63,381.24 
			285.82,381.24 285.82,368.44 340.98,368.44 340.98,381.24 334.16,381.24 334.16,375.31 317.41,375.31 317.41,429.13 
			321.65,429.13 321.65,435.43 		"/>
		<path fill="#009B66" d="M310.38,374.31h-18.75v5.93h-4.82v-10.8h53.16v10.8h-4.82v-5.93h-18.75v55.82h4.25v4.3h-14.52v-4.3h4.25
			V374.31z"/>
	</g>
</g>
<g>
	<path fill="#0F0F0F" d="M548.11,141.94h36.76v186.22h-36.76V141.94z"/>
	<path fill="#0F0F0F" d="M623.88,141.94h36.76v186.22h-36.76V141.94z"/>
	<path fill="#0F0F0F" d="M699.65,141.94h36.76v186.22h-36.76V141.94z"/>
	<path fill="#0F0F0F" d="M758.9,141.94h107.51v34.94h-35.44v151.28h-37.56V176.88H758.9V141.94z"/>
	<path fill="#0F0F0F" d="M967.57,328.16V141.94h30.58c17.74,0,30.72,1.1,38.93,3.29c11.65,2.96,20.92,8.44,27.8,16.46
		c6.88,8.02,10.33,17.47,10.33,28.36c0,7.09-1.57,13.53-4.69,19.31c-3.13,5.78-8.22,11.2-15.27,16.27
		c11.81,5.32,20.45,11.96,25.92,19.94c5.47,7.98,8.2,17.41,8.2,28.29c0,10.47-2.82,20-8.47,28.61s-12.93,15.04-21.84,19.31
		c-8.91,4.26-21.23,6.39-36.93,6.39H967.57z M1004.6,175.74v39.24h8.1c9.03,0,15.73-1.81,20.11-5.44c4.38-3.63,6.57-8.56,6.57-14.81
		c0-5.82-2.08-10.44-6.24-13.86c-4.16-3.42-10.49-5.13-18.98-5.13H1004.6z M1004.6,246.63v47.73h9.28c15.38,0,25.75-1.86,31.09-5.57
		c5.35-3.71,8.02-9.12,8.02-16.2c0-8.02-3.14-14.35-9.42-18.99c-6.28-4.64-16.71-6.96-31.29-6.96H1004.6z"/>
	<path fill="#0F0F0F" d="M1120.83,137.25h35.84v67.09c7.05-5.82,14.15-10.19,21.29-13.1c7.14-2.91,14.37-4.37,21.69-4.37
		c14.28,0,26.32,4.73,36.1,14.18c8.37,8.19,12.56,20.21,12.56,36.08v91.02h-35.57v-60.38c0-15.95-0.79-26.75-2.38-32.41
		c-1.59-5.65-4.3-9.88-8.13-12.66c-3.83-2.78-8.58-4.18-14.22-4.18c-7.32,0-13.6,2.32-18.84,6.96c-5.25,4.64-8.88,10.97-10.91,18.99
		c-1.06,4.14-1.59,13.59-1.59,28.36v55.32h-35.84V137.25z"/>
	<path fill="#0F0F0F" d="M1283.22,190.42h18.51v64.31c0,15.7,0.88,26.5,2.65,32.41c2.65,8.44,7.7,15.11,15.16,20
		c7.46,4.9,16.35,7.34,26.69,7.34c10.33,0,19.09-2.38,26.29-7.15c7.2-4.77,12.16-11.03,14.9-18.8c1.85-5.32,2.78-16.58,2.78-33.8
		v-64.31h18.91v67.6c0,18.99-2.31,33.29-6.94,42.92c-4.63,9.62-11.59,17.15-20.89,22.6c-9.3,5.44-20.96,8.17-34.98,8.17
		c-14.02,0-25.72-2.72-35.11-8.17c-9.39-5.44-16.4-13.04-21.03-22.79c-4.63-9.75-6.94-24.41-6.94-43.99V190.42z"/>
	<path fill="#0F0F0F" d="M1451.43,328.16v-190.9h18.51v76.84c7.75-9.11,16.42-15.93,26.02-20.44c9.6-4.51,20.12-6.77,31.57-6.77
		c20.34,0,37.71,7.07,52.11,21.2c14.4,14.14,21.6,31.29,21.6,51.46c0,19.92-7.27,36.92-21.8,51.02
		c-14.53,14.1-32.01,21.14-52.44,21.14c-11.71,0-22.33-2.41-31.84-7.22c-9.51-4.81-17.92-12.03-25.23-21.65v25.32H1451.43z
		 M1525.48,314.61c10.29,0,19.79-2.42,28.5-7.28c8.71-4.85,15.63-11.67,20.78-20.45c5.14-8.78,7.72-18.06,7.72-27.85
		c0-9.79-2.6-19.12-7.78-27.98c-5.19-8.86-12.16-15.76-20.91-20.7c-8.75-4.94-18.1-7.41-28.03-7.41c-10.12,0-19.72,2.47-28.83,7.41
		s-16.1,11.58-20.98,19.94c-4.88,8.36-7.32,17.77-7.32,28.23c0,15.95,5.47,29.29,16.42,40
		C1496,309.25,1509.47,314.61,1525.48,314.61z"/>
	<path fill="#0F0F0F" d="M1778.32,190.42v137.73h-18.25v-23.67c-7.76,9.03-16.46,15.82-26.12,20.38
		c-9.65,4.56-20.21,6.84-31.67,6.84c-20.36,0-37.75-7.07-52.17-21.21c-14.41-14.13-21.62-31.33-21.62-51.59
		c0-19.83,7.27-36.79,21.82-50.89c14.55-14.09,32.04-21.14,52.5-21.14c11.81,0,22.5,2.41,32.07,7.22
		c9.56,4.81,17.96,12.03,25.19,21.65v-25.32H1778.32z M1704.34,203.97c-10.3,0-19.81,2.43-28.53,7.27
		c-8.72,4.85-15.65,11.66-20.8,20.42c-5.15,8.77-7.73,18.04-7.73,27.82c0,9.7,2.6,18.97,7.79,27.82
		c5.2,8.85,12.17,15.74,20.94,20.67c8.76,4.93,18.16,7.4,28.2,7.4c10.13,0,19.72-2.44,28.79-7.33c9.07-4.89,16.05-11.51,20.93-19.85
		c4.89-8.34,7.33-17.75,7.33-28.2c0-15.93-5.48-29.25-16.45-39.96C1733.86,209.32,1720.36,203.97,1704.34,203.97z"/>
	<path fill="#0F0F0F" d="M1819.98,190.42h18.51v24.69c7.41-9.45,15.6-16.52,24.6-21.2s18.78-7.03,29.36-7.03
		c10.75,0,20.3,2.62,28.63,7.85c8.33,5.23,14.48,12.28,18.45,21.14c3.97,8.86,5.95,22.66,5.95,41.4v70.89h-18.51v-65.7
		c0-15.87-0.69-26.46-2.06-31.78c-2.14-9.11-6.26-15.97-12.34-20.57c-6.08-4.6-14.02-6.9-23.81-6.9c-11.2,0-21.23,3.54-30.09,10.63
		c-8.86,7.09-14.7,15.87-17.52,26.33c-1.76,6.84-2.64,19.33-2.64,37.47v50.51h-18.51V190.42z"/>
	<path fill="#0F0F0F" d="M2106.28,282.46l15.6,7.85c-5.12,9.62-11.03,17.39-17.74,23.29c-6.71,5.91-14.25,10.4-22.63,13.48
		c-8.38,3.08-17.87,4.62-28.46,4.62c-23.47,0-41.83-7.36-55.06-22.09c-13.24-14.73-19.85-31.37-19.85-49.94
		c0-17.47,5.6-33.04,16.81-46.71c14.21-17.38,33.22-26.08,57.05-26.08c24.53,0,44.12,8.9,58.77,26.71
		c10.41,12.58,15.71,28.27,15.88,47.09h-129.46c0.35,16,5.69,29.11,16.02,39.34c10.33,10.23,23.08,15.34,38.26,15.34
		c7.32,0,14.45-1.22,21.38-3.66c6.93-2.44,12.82-5.67,17.67-9.71S2100.63,291.45,2106.28,282.46z M2106.28,245.36
		c-2.47-9.45-6.07-17-10.79-22.66c-4.72-5.65-10.97-10.21-18.73-13.67c-7.77-3.46-15.93-5.19-24.49-5.19
		c-14.12,0-26.26,4.35-36.41,13.04c-7.42,6.33-13.02,15.82-16.81,28.48H2106.28z"/>
	<path fill="#0F0F0F" d="M2233.49,205.49l-11.9,11.77c-9.9-9.2-19.58-13.8-29.04-13.8c-6.01,0-11.16,1.9-15.45,5.7
		c-4.29,3.8-6.43,8.23-6.43,13.29c0,4.47,1.77,8.73,5.3,12.79c3.53,4.14,10.96,8.99,22.26,14.56c13.78,6.84,23.15,13.42,28.09,19.75
		c4.86,6.42,7.29,13.63,7.29,21.65c0,11.31-4.15,20.89-12.45,28.74c-8.3,7.85-18.67,11.77-31.12,11.77c-8.3,0-16.23-1.73-23.77-5.19
		c-7.55-3.46-13.8-8.23-18.74-14.3l11.64-12.66c9.46,10.21,19.48,15.32,30.09,15.32c7.42,0,13.74-2.28,18.95-6.84
		c5.21-4.56,7.82-9.92,7.82-16.08c0-5.06-1.72-9.58-5.17-13.55c-3.45-3.88-11.22-8.78-23.32-14.68
		c-12.99-6.41-21.82-12.74-26.5-18.99c-4.68-6.24-7.02-13.38-7.02-21.39c0-10.46,3.73-19.16,11.19-26.08
		c7.46-6.92,16.89-10.38,28.28-10.38C2206.73,186.88,2220.07,193.08,2233.49,205.49z"/>
	<path fill="#0F0F0F" d="M2246.85,190.42h19.04l44.1,100.01l45.91-100.01h3.36l46.22,100.01l44.95-100.01h19.25l-62.5,137.73h-3.43
		l-46-98.62l-45.98,98.62h-3.45L2246.85,190.42z"/>
	<path fill="#0F0F0F" d="M2634.7,190.42v137.73h-18.25v-23.67c-7.76,9.03-16.46,15.82-26.12,20.38c-9.65,4.56-20.21,6.84-31.67,6.84
		c-20.36,0-37.75-7.07-52.17-21.21c-14.41-14.13-21.62-31.33-21.62-51.59c0-19.83,7.27-36.79,21.82-50.89
		c14.55-14.09,32.04-21.14,52.5-21.14c11.81,0,22.5,2.41,32.07,7.22c9.56,4.81,17.96,12.03,25.19,21.65v-25.32H2634.7z
		 M2560.71,203.97c-10.3,0-19.81,2.43-28.53,7.27c-8.72,4.85-15.65,11.66-20.8,20.42c-5.15,8.77-7.73,18.04-7.73,27.82
		c0,9.7,2.6,18.97,7.79,27.82c5.2,8.85,12.17,15.74,20.94,20.67c8.76,4.93,18.16,7.4,28.2,7.4c10.13,0,19.72-2.44,28.79-7.33
		c9.07-4.89,16.05-11.51,20.93-19.85c4.89-8.34,7.33-17.75,7.33-28.2c0-15.93-5.48-29.25-16.45-39.96
		C2590.23,209.32,2576.74,203.97,2560.71,203.97z"/>
	<path fill="#0F0F0F" d="M2669.35,190.42h18.91v20.13c5.64-7.93,11.59-13.86,17.85-17.79c6.26-3.92,12.78-5.89,19.57-5.89
		c5.11,0,10.58,1.56,16.4,4.68l-9.65,14.94c-3.88-1.6-7.14-2.41-9.79-2.41c-6.17,0-12.12,2.43-17.85,7.28
		c-5.73,4.85-10.1,12.39-13.09,22.6c-2.29,7.85-3.44,23.72-3.44,47.6v46.59h-18.91V190.42z"/>
</g>
<g>
</g>
<g>
</g>
<g>
</g>
<g>
</g>
<g>
</g>
<g>
</g>
<g>
</g>
<g>
</g>
<g>
</g>
<g>
</g>
<g>
</g>
<g>
</g>
<g>
</g>
<g>
</g>
<g>
</g>
</svg>
