<?xml version="1.0" encoding="utf-8"?>
<!-- Generator: Adobe Illustrator 24.3.0, SVG Export Plug-In . SVG Version: 6.00 Build 0)  -->
<svg version="1.1" id="Layer_4" xmlns="http://www.w3.org/2000/svg" xmlns:xlink="http://www.w3.org/1999/xlink" x="0px" y="0px"
	 viewBox="0 0 474 435.98" enable-background="new 0 0 474 435.98" xml:space="preserve">
<g>
	<path fill="#FF7F00" d="M237,67c-95.39,0-173,75.36-173,168c0,47.35,20.27,90.19,52.84,120.75h23.24
		C102.93,327.73,79,284.02,79,235c0-84.36,70.88-153,158-153s158,68.64,158,153c0,49.02-23.93,92.73-61.08,120.75h23.24
		C389.73,325.19,410,282.35,410,235C410,142.36,332.39,67,237,67z"/>
	<path fill="#FF7F00" d="M411.25,394.28C451.79,350.77,474,294.58,474,235c0-62.78-24.66-121.81-69.44-166.19
		C359.8,24.44,300.29,0,237,0S114.2,24.44,69.44,68.81C24.66,113.19,0,172.22,0,235c0,56.83,20.21,110.58,57.25,153.18v-24.21
		C30.68,327.71,15,283.13,15,235c0-121.31,99.59-220,222-220s222,98.69,222,220c0,51.37-17.86,98.68-47.75,136.16V394.28z"/>
	<g>
		<g>
			<path fill="#009B66" d="M291.75,178.75c14.64,0,26.5-11.86,26.5-26.5s-11.86-26.5-26.5-26.5c-4.44,0-8.62,1.1-12.3,3.03
				c0,0-0.04,0.02-0.12,0.06c-0.11,0.06-0.22,0.12-0.33,0.18c-4.5,2.45-41.57,24.37-38.76,80.74c0,8,4,8,8,2
				S270.25,179.75,291.75,178.75z"/>
			<path fill="#009B66" d="M358.39,223.6c-2.27-3.81-5.35-6.85-8.89-9.02c0,0-0.04-0.02-0.11-0.07c-0.11-0.07-0.21-0.13-0.32-0.19
				c-4.41-2.61-42.21-23.25-89.2,8.01c-6.87,4.09-4.83,7.53,2.37,7.9c7.2,0.37,38.75,2.53,50.61,20.49
				c7.49,12.57,23.75,16.7,36.33,9.21S365.88,236.17,358.39,223.6z"/>
			<path fill="#009B66" d="M258.12,244.98c-6.99-3.89-8.94-0.39-5.64,6.02s17.28,34.78,7.7,54.05
				c-7.11,12.79-2.51,28.93,10.28,36.04c12.79,7.11,28.93,2.51,36.04-10.28c2.16-3.88,3.23-8.07,3.33-12.22c0,0,0-0.05,0-0.13
				c0-0.13,0.01-0.25,0.01-0.38C309.9,312.97,308.76,269.91,258.12,244.98z"/>
			<path fill="#009B66" d="M230.67,252.71c-3.94,6.04-21.67,32.23-43.15,33.45c-14.63,0.15-26.38,12.14-26.22,26.77
				c0.15,14.63,12.14,26.38,26.77,26.22c4.44-0.05,8.61-1.19,12.26-3.15c0,0,0.04-0.02,0.11-0.06c0.11-0.06,0.22-0.12,0.33-0.18
				c4.47-2.49,41.32-24.8,37.91-81.14C238.61,246.62,234.61,246.67,230.67,252.71z"/>
			<path fill="#009B66" d="M218.65,242.77c6.82-4.18,4.73-7.59-2.47-7.87c-7.21-0.28-38.78-2.04-50.87-19.85
				c-7.65-12.48-23.96-16.4-36.44-8.75c-12.48,7.65-16.4,23.96-8.75,36.44c2.32,3.79,5.44,6.78,9.01,8.9c0,0,0.04,0.02,0.11,0.07
				c0.11,0.06,0.22,0.13,0.32,0.19C133.99,254.47,172.06,274.63,218.65,242.77z"/>
			<path fill="#009B66" d="M219.92,220.59c7.04,3.79,8.94,0.27,5.56-6.09s-17.74-34.55-8.42-53.95c6.94-12.88,2.12-28.96-10.76-35.9
				s-28.96-2.12-35.9,10.76c-2.11,3.91-3.12,8.11-3.17,12.26c0,0,0,0.05,0,0.13c0,0.13,0,0.25,0,0.38
				C167.25,153.3,168.96,196.33,219.92,220.59z"/>
		</g>
	</g>
	<g>
		<polygon fill="#009B66" points="133.52,435.43 133.52,429.13 137.77,429.13 137.77,374.74 133.52,374.74 133.52,368.44 
			150.04,368.44 150.04,374.74 145.79,374.74 145.79,429.13 150.04,429.13 150.04,435.43 		"/>
		<path fill="#009B66" d="M144.8,373.74v56.39h4.25v4.3h-14.52v-4.3h4.25v-56.39h-4.25v-4.3h14.52v4.3H144.8z"/>
		<polygon fill="#009B66" points="187.36,435.43 187.36,429.13 191.61,429.13 191.61,374.74 187.36,374.74 187.36,368.44 
			203.88,368.44 203.88,374.74 199.63,374.74 199.63,429.13 203.88,429.13 203.88,435.43 		"/>
		<path fill="#009B66" d="M198.63,373.74v56.39h4.25v4.3h-14.52v-4.3h4.25v-56.39h-4.25v-4.3h14.52v4.3H198.63z"/>
		<polygon fill="#009B66" points="241.2,435.43 241.2,429.13 245.45,429.13 245.45,374.74 241.2,374.74 241.2,368.44 257.72,368.44 
			257.72,374.74 253.47,374.74 253.47,429.13 257.72,429.13 257.72,435.43 		"/>
		<path fill="#009B66" d="M252.47,373.74v56.39h4.25v4.3H242.2v-4.3h4.25v-56.39h-4.25v-4.3h14.52v4.3H252.47z"/>
		<polygon fill="#009B66" points="305.14,435.43 305.14,429.13 309.38,429.13 309.38,375.31 292.63,375.31 292.63,381.24 
			285.82,381.24 285.82,368.44 340.98,368.44 340.98,381.24 334.16,381.24 334.16,375.31 317.41,375.31 317.41,429.13 
			321.65,429.13 321.65,435.43 		"/>
		<path fill="#009B66" d="M310.38,374.31h-18.75v5.93h-4.82v-10.8h53.16v10.8h-4.82v-5.93h-18.75v55.82h4.25v4.3h-14.52v-4.3h4.25
			V374.31z"/>
	</g>
</g>
<g>
</g>
<g>
</g>
<g>
</g>
<g>
</g>
<g>
</g>
<g>
</g>
<g>
</g>
<g>
</g>
<g>
</g>
<g>
</g>
<g>
</g>
<g>
</g>
<g>
</g>
<g>
</g>
<g>
</g>
</svg>
