<svg xmlns="http://www.w3.org/2000/svg" xmlns:xlink="http://www.w3.org/1999/xlink" width="500" zoomAndPan="magnify" viewBox="0 0 375 374.999991" height="500" preserveAspectRatio="xMidYMid meet" version="1.0"><defs><clipPath id="08e539f808"><path d="M 0 139.75 L 65 139.75 L 65 194 L 0 194 Z M 0 139.75 " clip-rule="nonzero"/></clipPath><clipPath id="e163e5e2c8"><path d="M 18 190 L 21 190 L 21 199.75 L 18 199.75 Z M 18 190 " clip-rule="nonzero"/></clipPath><clipPath id="88137c0f65"><path d="M 25 190 L 28 190 L 28 199.75 L 25 199.75 Z M 25 190 " clip-rule="nonzero"/></clipPath><clipPath id="69f2dbfcc8"><path d="M 32 190 L 36 190 L 36 199.75 L 32 199.75 Z M 32 190 " clip-rule="nonzero"/></clipPath><clipPath id="d280259e20"><path d="M 33 190 L 36 190 L 36 199.75 L 33 199.75 Z M 33 190 " clip-rule="nonzero"/></clipPath><clipPath id="60bbd34e20"><path d="M 39 190 L 47 190 L 47 199.75 L 39 199.75 Z M 39 190 " clip-rule="nonzero"/></clipPath></defs><path fill="#ff7f00" d="M 32.410156 148.992188 C 19.367188 148.992188 8.753906 159.351562 8.753906 172.089844 C 8.753906 178.597656 11.523438 184.488281 15.976562 188.6875 L 19.15625 188.6875 C 14.078125 184.835938 10.804688 178.828125 10.804688 172.089844 C 10.804688 160.492188 20.496094 151.054688 32.410156 151.054688 C 44.324219 151.054688 54.019531 160.492188 54.019531 172.089844 C 54.019531 178.828125 50.746094 184.835938 45.664062 188.6875 L 48.84375 188.6875 C 53.296875 184.488281 56.070312 178.597656 56.070312 172.089844 C 56.070312 159.351562 45.457031 148.992188 32.410156 148.992188 Z M 32.410156 148.992188 " fill-opacity="1" fill-rule="nonzero"/><g clip-path="url(#08e539f808)"><path fill="#ff7f00" d="M 56.242188 193.988281 C 61.785156 188.003906 64.820312 180.28125 64.820312 172.089844 C 64.820312 163.457031 61.449219 155.34375 55.324219 149.242188 C 49.203125 143.140625 41.066406 139.78125 32.410156 139.78125 C 23.753906 139.78125 15.617188 143.140625 9.496094 149.242188 C 3.371094 155.34375 0 163.457031 0 172.089844 C 0 179.902344 2.765625 187.292969 7.828125 193.148438 L 7.828125 189.820312 C 4.195312 184.835938 2.050781 178.707031 2.050781 172.089844 C 2.050781 155.410156 15.671875 141.84375 32.410156 141.84375 C 49.152344 141.84375 62.769531 155.410156 62.769531 172.089844 C 62.769531 179.152344 60.328125 185.65625 56.242188 190.808594 Z M 56.242188 193.988281 " fill-opacity="1" fill-rule="nonzero"/></g><path fill="#009b66" d="M 39.898438 164.355469 C 41.902344 164.355469 43.523438 162.726562 43.523438 160.710938 C 43.523438 158.699219 41.902344 157.070312 39.898438 157.070312 C 39.292969 157.070312 38.71875 157.21875 38.214844 157.484375 C 38.214844 157.484375 38.210938 157.488281 38.199219 157.492188 C 38.183594 157.5 38.167969 157.511719 38.15625 157.519531 C 37.539062 157.855469 32.46875 160.867188 32.855469 168.617188 C 32.855469 169.71875 33.402344 169.71875 33.949219 168.894531 C 34.496094 168.070312 36.957031 164.492188 39.898438 164.355469 Z M 39.898438 164.355469 " fill-opacity="1" fill-rule="nonzero"/><path fill="#009b66" d="M 49.011719 170.519531 C 48.703125 169.996094 48.28125 169.578125 47.796875 169.28125 C 47.796875 169.28125 47.789062 169.277344 47.78125 169.273438 C 47.765625 169.261719 47.753906 169.253906 47.738281 169.246094 C 47.132812 168.886719 41.964844 166.050781 35.539062 170.347656 C 34.597656 170.910156 34.878906 171.382812 35.863281 171.433594 C 36.847656 171.484375 41.160156 171.78125 42.785156 174.25 C 43.808594 175.976562 46.03125 176.546875 47.753906 175.515625 C 49.472656 174.484375 50.035156 172.25 49.011719 170.519531 Z M 49.011719 170.519531 " fill-opacity="1" fill-rule="nonzero"/><path fill="#009b66" d="M 35.300781 173.460938 C 34.34375 172.925781 34.078125 173.40625 34.527344 174.289062 C 34.980469 175.167969 36.890625 179.070312 35.582031 181.71875 C 34.609375 183.476562 35.238281 185.695312 36.988281 186.675781 C 38.734375 187.652344 40.941406 187.019531 41.914062 185.261719 C 42.210938 184.726562 42.355469 184.152344 42.371094 183.582031 C 42.371094 183.582031 42.371094 183.574219 42.371094 183.5625 C 42.371094 183.542969 42.371094 183.527344 42.371094 183.511719 C 42.378906 182.808594 42.226562 176.886719 35.300781 173.460938 Z M 35.300781 173.460938 " fill-opacity="1" fill-rule="nonzero"/><path fill="#009b66" d="M 31.546875 174.523438 C 31.007812 175.355469 28.582031 178.953125 25.644531 179.121094 C 23.644531 179.144531 22.035156 180.792969 22.058594 182.800781 C 22.078125 184.8125 23.71875 186.429688 25.71875 186.40625 C 26.328125 186.398438 26.898438 186.242188 27.394531 185.972656 C 27.394531 185.972656 27.402344 185.972656 27.410156 185.964844 C 27.425781 185.957031 27.441406 185.949219 27.457031 185.941406 C 28.066406 185.597656 33.105469 182.53125 32.640625 174.785156 C 32.632812 173.6875 32.085938 173.691406 31.546875 174.523438 Z M 31.546875 174.523438 " fill-opacity="1" fill-rule="nonzero"/><path fill="#009b66" d="M 29.902344 173.15625 C 30.835938 172.582031 30.546875 172.113281 29.5625 172.074219 C 28.578125 172.035156 24.261719 171.792969 22.605469 169.347656 C 21.5625 167.628906 19.332031 167.089844 17.625 168.144531 C 15.917969 169.195312 15.382812 171.4375 16.425781 173.152344 C 16.746094 173.671875 17.171875 174.085938 17.660156 174.375 C 17.660156 174.375 17.664062 174.378906 17.675781 174.386719 C 17.6875 174.394531 17.703125 174.402344 17.71875 174.410156 C 18.324219 174.765625 23.53125 177.535156 29.902344 173.15625 Z M 29.902344 173.15625 " fill-opacity="1" fill-rule="nonzero"/><path fill="#009b66" d="M 30.074219 170.109375 C 31.039062 170.628906 31.296875 170.144531 30.835938 169.269531 C 30.375 168.394531 28.410156 164.519531 29.683594 161.851562 C 30.632812 160.082031 29.972656 157.871094 28.210938 156.917969 C 26.453125 155.964844 24.253906 156.625 23.304688 158.398438 C 23.015625 158.933594 22.875 159.511719 22.871094 160.082031 C 22.871094 160.082031 22.871094 160.089844 22.871094 160.101562 C 22.871094 160.117188 22.871094 160.132812 22.871094 160.152344 C 22.871094 160.855469 23.105469 166.773438 30.074219 170.109375 Z M 30.074219 170.109375 " fill-opacity="1" fill-rule="nonzero"/><g clip-path="url(#e163e5e2c8)"><path fill="#009b66" d="M 18.257812 199.644531 L 18.257812 198.777344 L 18.839844 198.777344 L 18.839844 191.300781 L 18.257812 191.300781 L 18.257812 190.433594 L 20.519531 190.433594 L 20.519531 191.300781 L 19.9375 191.300781 L 19.9375 198.777344 L 20.519531 198.777344 L 20.519531 199.644531 Z M 18.257812 199.644531 " fill-opacity="1" fill-rule="nonzero"/><path fill="#009b66" d="M 19.800781 191.164062 L 19.800781 198.914062 L 20.382812 198.914062 L 20.382812 199.507812 L 18.398438 199.507812 L 18.398438 198.914062 L 18.980469 198.914062 L 18.980469 191.164062 L 18.398438 191.164062 L 18.398438 190.570312 L 20.382812 190.570312 L 20.382812 191.164062 Z M 19.800781 191.164062 " fill-opacity="1" fill-rule="nonzero"/></g><g clip-path="url(#88137c0f65)"><path fill="#009b66" d="M 25.621094 199.644531 L 25.621094 198.777344 L 26.203125 198.777344 L 26.203125 191.300781 L 25.621094 191.300781 L 25.621094 190.433594 L 27.882812 190.433594 L 27.882812 191.300781 L 27.300781 191.300781 L 27.300781 198.777344 L 27.882812 198.777344 L 27.882812 199.644531 Z M 25.621094 199.644531 " fill-opacity="1" fill-rule="nonzero"/><path fill="#009b66" d="M 27.164062 191.164062 L 27.164062 198.914062 L 27.746094 198.914062 L 27.746094 199.507812 L 25.757812 199.507812 L 25.757812 198.914062 L 26.339844 198.914062 L 26.339844 191.164062 L 25.757812 191.164062 L 25.757812 190.570312 L 27.746094 190.570312 L 27.746094 191.164062 Z M 27.164062 191.164062 " fill-opacity="1" fill-rule="nonzero"/></g><g clip-path="url(#69f2dbfcc8)"><path fill="#009b66" d="M 32.984375 199.644531 L 32.984375 198.777344 L 33.566406 198.777344 L 33.566406 191.300781 L 32.984375 191.300781 L 32.984375 190.433594 L 35.246094 190.433594 L 35.246094 191.300781 L 34.664062 191.300781 L 34.664062 198.777344 L 35.246094 198.777344 L 35.246094 199.644531 Z M 32.984375 199.644531 " fill-opacity="1" fill-rule="nonzero"/></g><g clip-path="url(#d280259e20)"><path fill="#009b66" d="M 34.527344 191.164062 L 34.527344 198.914062 L 35.109375 198.914062 L 35.109375 199.507812 L 33.121094 199.507812 L 33.121094 198.914062 L 33.703125 198.914062 L 33.703125 191.164062 L 33.121094 191.164062 L 33.121094 190.570312 L 35.109375 190.570312 L 35.109375 191.164062 Z M 34.527344 191.164062 " fill-opacity="1" fill-rule="nonzero"/></g><g clip-path="url(#60bbd34e20)"><path fill="#009b66" d="M 41.730469 199.644531 L 41.730469 198.777344 L 42.308594 198.777344 L 42.308594 191.378906 L 40.019531 191.378906 L 40.019531 192.195312 L 39.085938 192.195312 L 39.085938 190.433594 L 46.632812 190.433594 L 46.632812 192.195312 L 45.699219 192.195312 L 45.699219 191.378906 L 43.40625 191.378906 L 43.40625 198.777344 L 43.988281 198.777344 L 43.988281 199.644531 Z M 41.730469 199.644531 " fill-opacity="1" fill-rule="nonzero"/><path fill="#009b66" d="M 42.445312 191.242188 L 39.882812 191.242188 L 39.882812 192.054688 L 39.222656 192.054688 L 39.222656 190.570312 L 46.492188 190.570312 L 46.492188 192.054688 L 45.832031 192.054688 L 45.832031 191.242188 L 43.269531 191.242188 L 43.269531 198.914062 L 43.851562 198.914062 L 43.851562 199.507812 L 41.863281 199.507812 L 41.863281 198.914062 L 42.445312 198.914062 Z M 42.445312 191.242188 " fill-opacity="1" fill-rule="nonzero"/></g><path fill="#ffffff" d="M 74.957031 159.292969 L 79.984375 159.292969 L 79.984375 184.894531 L 74.957031 184.894531 Z M 74.957031 159.292969 " fill-opacity="1" fill-rule="nonzero"/><path fill="#ffffff" d="M 85.320312 159.292969 L 90.347656 159.292969 L 90.347656 184.894531 L 85.320312 184.894531 Z M 85.320312 159.292969 " fill-opacity="1" fill-rule="nonzero"/><path fill="#ffffff" d="M 95.679688 159.292969 L 100.707031 159.292969 L 100.707031 184.894531 L 95.679688 184.894531 Z M 95.679688 159.292969 " fill-opacity="1" fill-rule="nonzero"/><path fill="#ffffff" d="M 103.785156 159.292969 L 118.488281 159.292969 L 118.488281 164.097656 L 113.640625 164.097656 L 113.640625 184.894531 L 108.503906 184.894531 L 108.503906 164.097656 L 103.785156 164.097656 Z M 103.785156 159.292969 " fill-opacity="1" fill-rule="nonzero"/><path fill="#ffffff" d="M 132.320312 184.894531 L 132.320312 159.292969 L 136.503906 159.292969 C 138.929688 159.292969 140.703125 159.445312 141.828125 159.746094 C 143.417969 160.152344 144.6875 160.90625 145.628906 162.011719 C 146.570312 163.113281 147.039062 164.410156 147.039062 165.910156 C 147.039062 166.882812 146.828125 167.769531 146.398438 168.5625 C 145.972656 169.359375 145.273438 170.101562 144.3125 170.800781 C 145.925781 171.53125 147.109375 172.445312 147.855469 173.542969 C 148.605469 174.640625 148.976562 175.933594 148.976562 177.429688 C 148.976562 178.871094 148.589844 180.179688 147.820312 181.363281 C 147.046875 182.546875 146.050781 183.433594 144.832031 184.019531 C 143.613281 184.605469 141.929688 184.898438 139.78125 184.898438 L 132.320312 184.898438 Z M 137.382812 163.941406 L 137.382812 169.335938 L 138.492188 169.335938 C 139.726562 169.335938 140.644531 169.085938 141.242188 168.589844 C 141.839844 168.089844 142.140625 167.410156 142.140625 166.550781 C 142.140625 165.753906 141.855469 165.117188 141.289062 164.648438 C 140.71875 164.175781 139.851562 163.941406 138.691406 163.941406 Z M 137.382812 173.6875 L 137.382812 180.25 L 138.652344 180.25 C 140.757812 180.25 142.175781 179.992188 142.90625 179.484375 C 143.636719 178.972656 144.003906 178.230469 144.003906 177.257812 C 144.003906 176.152344 143.574219 175.285156 142.714844 174.644531 C 141.855469 174.007812 140.429688 173.6875 138.433594 173.6875 Z M 137.382812 173.6875 " fill-opacity="1" fill-rule="nonzero"/><path fill="#ffffff" d="M 153.28125 158.648438 L 158.179688 158.648438 L 158.179688 167.875 C 159.144531 167.074219 160.117188 166.472656 161.09375 166.074219 C 162.070312 165.671875 163.058594 165.472656 164.058594 165.472656 C 166.011719 165.472656 167.65625 166.121094 168.996094 167.421875 C 170.140625 168.546875 170.714844 170.199219 170.714844 172.382812 L 170.714844 184.894531 L 165.847656 184.894531 L 165.847656 176.59375 C 165.847656 174.402344 165.742188 172.917969 165.523438 172.136719 C 165.304688 171.359375 164.933594 170.78125 164.410156 170.398438 C 163.886719 170.015625 163.238281 169.824219 162.46875 169.824219 C 161.464844 169.824219 160.605469 170.140625 159.890625 170.78125 C 159.171875 171.417969 158.675781 172.289062 158.398438 173.390625 C 158.253906 173.960938 158.179688 175.257812 158.179688 177.289062 L 158.179688 184.894531 L 153.28125 184.894531 Z M 153.28125 158.648438 " fill-opacity="1" fill-rule="nonzero"/><path fill="#ffffff" d="M 175.488281 165.960938 L 178.019531 165.960938 L 178.019531 174.800781 C 178.019531 176.960938 178.140625 178.445312 178.382812 179.257812 C 178.742188 180.417969 179.433594 181.335938 180.453125 182.007812 C 181.472656 182.679688 182.691406 183.015625 184.105469 183.015625 C 185.515625 183.015625 186.714844 182.6875 187.699219 182.03125 C 188.683594 181.375 189.363281 180.515625 189.738281 179.449219 C 189.992188 178.714844 190.117188 177.167969 190.117188 174.800781 L 190.117188 165.960938 L 192.703125 165.960938 L 192.703125 175.253906 C 192.703125 177.863281 192.386719 179.828125 191.753906 181.152344 C 191.121094 182.476562 190.167969 183.511719 188.898438 184.261719 C 187.625 185.007812 186.03125 185.382812 184.113281 185.382812 C 182.195312 185.382812 180.597656 185.011719 179.3125 184.261719 C 178.027344 183.511719 177.070312 182.46875 176.4375 181.128906 C 175.804688 179.789062 175.488281 177.773438 175.488281 175.082031 Z M 175.488281 165.960938 " fill-opacity="1" fill-rule="nonzero"/><path fill="#ffffff" d="M 198.492188 184.894531 L 198.492188 158.652344 L 201.023438 158.652344 L 201.023438 169.214844 C 202.082031 167.960938 203.269531 167.023438 204.582031 166.40625 C 205.894531 165.785156 207.332031 165.472656 208.898438 165.472656 C 211.679688 165.472656 214.054688 166.445312 216.023438 168.390625 C 217.992188 170.332031 218.976562 172.691406 218.976562 175.464844 C 218.976562 178.203125 217.984375 180.539062 215.996094 182.476562 C 214.011719 184.417969 211.621094 185.382812 208.824219 185.382812 C 207.222656 185.382812 205.773438 185.054688 204.472656 184.390625 C 203.171875 183.730469 202.019531 182.738281 201.019531 181.414062 L 201.019531 184.894531 Z M 208.617188 183.035156 C 210.023438 183.035156 211.324219 182.699219 212.515625 182.03125 C 213.707031 181.367188 214.652344 180.429688 215.355469 179.222656 C 216.058594 178.015625 216.414062 176.738281 216.414062 175.390625 C 216.414062 174.046875 216.058594 172.761719 215.347656 171.546875 C 214.640625 170.328125 213.6875 169.378906 212.488281 168.699219 C 211.292969 168.019531 210.015625 167.679688 208.65625 167.679688 C 207.273438 167.679688 205.960938 168.019531 204.714844 168.699219 C 203.46875 169.378906 202.511719 170.292969 201.84375 171.441406 C 201.175781 172.589844 200.84375 173.882812 200.84375 175.320312 C 200.84375 177.515625 201.589844 179.347656 203.089844 180.820312 C 204.585938 182.296875 206.429688 183.035156 208.617188 183.035156 Z M 208.617188 183.035156 " fill-opacity="1" fill-rule="nonzero"/><path fill="#ffffff" d="M 243.195312 165.960938 L 243.195312 184.894531 L 240.699219 184.894531 L 240.699219 181.640625 C 239.636719 182.882812 238.449219 183.816406 237.128906 184.441406 C 235.808594 185.070312 234.363281 185.382812 232.796875 185.382812 C 230.011719 185.382812 227.632812 184.410156 225.660156 182.46875 C 223.691406 180.523438 222.703125 178.160156 222.703125 175.375 C 222.703125 172.648438 223.699219 170.316406 225.6875 168.378906 C 227.679688 166.441406 230.070312 165.472656 232.867188 165.472656 C 234.484375 165.472656 235.945312 165.804688 237.253906 166.464844 C 238.5625 167.125 239.710938 168.117188 240.699219 169.441406 L 240.699219 165.960938 Z M 233.078125 167.824219 C 231.667969 167.824219 230.367188 168.15625 229.175781 168.820312 C 227.984375 169.488281 227.035156 170.425781 226.332031 171.628906 C 225.628906 172.835938 225.273438 174.109375 225.273438 175.453125 C 225.273438 176.789062 225.628906 178.0625 226.339844 179.277344 C 227.050781 180.496094 228.003906 181.441406 229.203125 182.121094 C 230.402344 182.796875 231.6875 183.136719 233.058594 183.136719 C 234.445312 183.136719 235.757812 182.800781 236.996094 182.128906 C 238.238281 181.457031 239.191406 180.546875 239.859375 179.402344 C 240.527344 178.253906 240.863281 176.960938 240.863281 175.523438 C 240.863281 173.335938 240.113281 171.503906 238.613281 170.03125 C 237.113281 168.558594 235.269531 167.824219 233.078125 167.824219 Z M 233.078125 167.824219 " fill-opacity="1" fill-rule="nonzero"/><path fill="#ffffff" d="M 248.890625 165.960938 L 251.421875 165.960938 L 251.421875 169.355469 C 252.4375 168.054688 253.558594 167.082031 254.789062 166.4375 C 256.019531 165.796875 257.355469 165.472656 258.804688 165.472656 C 260.273438 165.472656 261.578125 165.832031 262.71875 166.550781 C 263.855469 167.269531 264.699219 168.242188 265.242188 169.457031 C 265.785156 170.675781 266.054688 172.574219 266.054688 175.148438 L 266.054688 184.894531 L 263.523438 184.894531 L 263.523438 175.863281 C 263.523438 173.683594 263.429688 172.226562 263.242188 171.496094 C 262.949219 170.242188 262.386719 169.300781 261.554688 168.667969 C 260.722656 168.035156 259.636719 167.71875 258.296875 167.71875 C 256.765625 167.71875 255.394531 168.203125 254.183594 169.179688 C 252.972656 170.152344 252.171875 171.359375 251.789062 172.800781 C 251.546875 173.738281 251.425781 175.457031 251.425781 177.949219 L 251.425781 184.894531 L 248.894531 184.894531 L 248.894531 165.960938 Z M 248.890625 165.960938 " fill-opacity="1" fill-rule="nonzero"/><path fill="#ffffff" d="M 288.046875 178.613281 L 290.179688 179.691406 C 289.480469 181.015625 288.671875 182.082031 287.753906 182.894531 C 286.835938 183.707031 285.804688 184.324219 284.65625 184.746094 C 283.511719 185.171875 282.214844 185.382812 280.765625 185.382812 C 277.554688 185.382812 275.046875 184.371094 273.234375 182.347656 C 271.425781 180.320312 270.523438 178.03125 270.523438 175.480469 C 270.523438 173.078125 271.289062 170.9375 272.820312 169.058594 C 274.765625 166.667969 277.363281 165.472656 280.621094 165.472656 C 283.976562 165.472656 286.65625 166.695312 288.660156 169.144531 C 290.082031 170.875 290.808594 173.03125 290.832031 175.617188 L 273.125 175.617188 C 273.175781 177.820312 273.90625 179.621094 275.316406 181.027344 C 276.730469 182.433594 278.472656 183.136719 280.550781 183.136719 C 281.550781 183.136719 282.527344 182.96875 283.472656 182.632812 C 284.421875 182.296875 285.226562 181.855469 285.890625 181.296875 C 286.554688 180.742188 287.273438 179.847656 288.046875 178.613281 Z M 288.046875 173.511719 C 287.707031 172.214844 287.214844 171.175781 286.570312 170.398438 C 285.925781 169.621094 285.070312 168.992188 284.007812 168.519531 C 282.945312 168.042969 281.828125 167.804688 280.660156 167.804688 C 278.726562 167.804688 277.066406 168.402344 275.679688 169.597656 C 274.664062 170.46875 273.898438 171.773438 273.382812 173.511719 Z M 288.046875 173.511719 " fill-opacity="1" fill-rule="nonzero"/><path fill="#ffffff" d="M 305.441406 168.03125 L 303.816406 169.648438 C 302.460938 168.386719 301.136719 167.753906 299.84375 167.753906 C 299.019531 167.753906 298.316406 168.011719 297.730469 168.535156 C 297.144531 169.058594 296.851562 169.667969 296.851562 170.363281 C 296.851562 170.976562 297.09375 171.5625 297.574219 172.121094 C 298.058594 172.691406 299.074219 173.359375 300.621094 174.125 C 302.503906 175.0625 303.785156 175.96875 304.460938 176.839844 C 305.125 177.722656 305.457031 178.710938 305.457031 179.816406 C 305.457031 181.371094 304.890625 182.6875 303.757812 183.765625 C 302.621094 184.84375 301.203125 185.382812 299.5 185.382812 C 298.363281 185.382812 297.28125 185.144531 296.25 184.671875 C 295.21875 184.195312 294.363281 183.539062 293.6875 182.703125 L 295.277344 180.964844 C 296.570312 182.367188 297.941406 183.070312 299.394531 183.070312 C 300.40625 183.070312 301.273438 182.757812 301.984375 182.128906 C 302.699219 181.503906 303.054688 180.765625 303.054688 179.917969 C 303.054688 179.222656 302.820312 178.601562 302.347656 178.054688 C 301.875 177.523438 300.8125 176.847656 299.15625 176.039062 C 297.382812 175.15625 296.175781 174.285156 295.535156 173.425781 C 294.894531 172.570312 294.574219 171.589844 294.574219 170.488281 C 294.574219 169.050781 295.085938 167.851562 296.105469 166.902344 C 297.125 165.949219 298.414062 165.472656 299.972656 165.472656 C 301.78125 165.472656 303.605469 166.324219 305.441406 168.03125 Z M 305.441406 168.03125 " fill-opacity="1" fill-rule="nonzero"/><path fill="#ffffff" d="M 307.269531 165.960938 L 309.871094 165.960938 L 315.902344 179.710938 L 322.183594 165.960938 L 322.640625 165.960938 L 328.960938 179.710938 L 335.109375 165.960938 L 337.742188 165.960938 L 329.195312 184.894531 L 328.726562 184.894531 L 322.433594 171.335938 L 316.148438 184.894531 L 315.675781 184.894531 Z M 307.269531 165.960938 " fill-opacity="1" fill-rule="nonzero"/><path fill="#ffffff" d="M 360.308594 165.960938 L 360.308594 184.894531 L 357.8125 184.894531 L 357.8125 181.640625 C 356.753906 182.882812 355.5625 183.816406 354.242188 184.441406 C 352.921875 185.070312 351.476562 185.382812 349.910156 185.382812 C 347.125 185.382812 344.75 184.410156 342.777344 182.46875 C 340.804688 180.523438 339.820312 178.160156 339.820312 175.375 C 339.820312 172.648438 340.8125 170.316406 342.804688 168.378906 C 344.792969 166.441406 347.183594 165.472656 349.984375 165.472656 C 351.597656 165.472656 353.058594 165.804688 354.367188 166.464844 C 355.675781 167.125 356.824219 168.117188 357.8125 169.441406 L 357.8125 165.960938 Z M 350.191406 167.824219 C 348.78125 167.824219 347.480469 168.15625 346.289062 168.820312 C 345.097656 169.488281 344.148438 170.425781 343.445312 171.628906 C 342.742188 172.835938 342.386719 174.109375 342.386719 175.453125 C 342.386719 176.789062 342.742188 178.0625 343.453125 179.277344 C 344.164062 180.496094 345.117188 181.441406 346.316406 182.121094 C 347.515625 182.796875 348.800781 183.136719 350.171875 183.136719 C 351.558594 183.136719 352.871094 182.800781 354.109375 182.128906 C 355.351562 181.457031 356.304688 180.546875 356.972656 179.402344 C 357.640625 178.253906 357.976562 176.960938 357.976562 175.523438 C 357.976562 173.335938 357.226562 171.503906 355.726562 170.03125 C 354.226562 168.558594 352.382812 167.824219 350.191406 167.824219 Z M 350.191406 167.824219 " fill-opacity="1" fill-rule="nonzero"/><path fill="#ffffff" d="M 365.046875 165.960938 L 367.632812 165.960938 L 367.632812 168.726562 C 368.40625 167.636719 369.21875 166.820312 370.074219 166.28125 C 370.929688 165.742188 371.824219 165.472656 372.75 165.472656 C 373.449219 165.472656 374.199219 165.6875 374.996094 166.113281 L 373.675781 168.167969 C 373.144531 167.949219 372.699219 167.835938 372.335938 167.835938 C 371.492188 167.835938 370.679688 168.171875 369.894531 168.839844 C 369.109375 169.503906 368.511719 170.542969 368.105469 171.945312 C 367.792969 173.023438 367.632812 175.207031 367.632812 178.488281 L 367.632812 184.894531 L 365.046875 184.894531 Z M 365.046875 165.960938 " fill-opacity="1" fill-rule="nonzero"/></svg>