<svg width="351" height="350" viewBox="0 0 351 350" fill="none" xmlns="http://www.w3.org/2000/svg">
<path d="M172.653 336.954L172.843 300.591L177.247 300.614L177.057 336.977L172.653 336.954Z" fill="black"/>
<path d="M160.193 301.006L153.108 327.342L149.198 326.29L150.305 322.175L149.963 322.083C149.036 323.341 147.856 324.195 146.424 324.643C144.989 325.103 143.414 325.102 141.699 324.64C139.962 324.173 138.622 323.39 137.679 322.29C136.723 321.199 136.108 319.863 135.834 318.282L135.56 318.208C134.52 319.387 133.217 320.195 131.653 320.632C130.086 321.081 128.359 321.052 126.473 320.544C124.119 319.911 122.391 318.655 121.29 316.778C120.186 314.912 120.051 312.43 120.885 309.332L125.626 291.706L129.673 292.795L124.931 310.421C124.408 312.364 124.566 313.896 125.405 315.017C126.243 316.137 127.383 316.891 128.823 317.278C130.675 317.777 132.26 317.602 133.579 316.756C134.894 315.921 135.781 314.652 136.239 312.948L140.852 295.802L144.967 296.909L140.115 314.947C139.712 316.445 139.873 317.781 140.599 318.957C141.321 320.144 142.448 320.944 143.98 321.356C145.032 321.639 146.09 321.623 147.155 321.309C148.209 320.992 149.15 320.412 149.977 319.568C150.79 318.732 151.371 317.669 151.718 316.377L156.146 299.917L160.193 301.006Z" fill="black"/>
<path d="M109.276 281.143C110.724 282.086 111.861 283.215 112.686 284.529C113.505 285.853 113.922 287.262 113.938 288.756C113.948 290.259 113.468 291.755 112.5 293.243C111.647 294.552 110.698 295.446 109.652 295.923C108.6 296.411 107.491 296.606 106.325 296.511C105.158 296.415 103.98 296.142 102.79 295.692C101.583 295.245 100.404 294.746 99.2522 294.194C97.7472 293.468 96.5342 292.869 95.613 292.396C94.6755 291.927 93.9341 291.677 93.3888 291.647C92.8335 291.61 92.3718 291.875 92.0036 292.44L91.9261 292.559C90.9701 294.027 90.629 295.429 90.9029 296.766C91.1668 298.096 92.1071 299.288 93.724 300.34C95.4004 301.432 96.9537 301.921 98.384 301.807C99.8142 301.693 100.994 301.345 101.923 300.764L104.481 304.125C102.982 305.126 101.484 305.69 99.9885 305.818C98.4763 305.949 97.0299 305.784 95.6493 305.323C94.2522 304.866 92.9784 304.262 91.8277 303.513C91.0937 303.035 90.3087 302.397 89.4727 301.598C88.6203 300.803 87.9221 299.847 87.3782 298.73C86.8243 297.606 86.6018 296.31 86.7107 294.841C86.8196 293.373 87.4651 291.731 88.6471 289.915L98.4523 274.858L101.964 277.144L99.9485 280.239L100.127 280.355C100.688 280.014 101.43 279.742 102.354 279.538C103.278 279.335 104.33 279.335 105.511 279.539C106.692 279.743 107.947 280.277 109.276 281.143ZM106.686 283.948C105.298 283.044 103.949 282.555 102.642 282.48C101.325 282.399 100.142 282.632 99.0938 283.179C98.0359 283.719 97.1969 284.465 96.5768 285.417L94.484 288.631C94.749 288.549 95.1829 288.599 95.7857 288.779C96.3721 288.963 97.0282 289.214 97.7539 289.531C98.4633 289.852 99.1513 290.173 99.818 290.494C100.468 290.818 100.998 291.079 101.407 291.275C102.397 291.75 103.376 292.112 104.344 292.361C105.296 292.613 106.186 292.635 107.014 292.425C107.826 292.22 108.523 291.67 109.104 290.778C109.899 289.558 110.048 288.341 109.552 287.129C109.04 285.919 108.085 284.859 106.686 283.948Z" fill="black"/>
<path d="M90.0014 251.885C91.3489 253.396 92.3129 254.868 92.8935 256.301C93.483 257.726 93.7872 259.081 93.8062 260.364C93.8262 261.632 93.672 262.792 93.3436 263.847L89.3725 262.916C89.4913 262.302 89.5962 261.566 89.687 260.708C89.7867 259.842 89.6783 258.876 89.3618 257.81C89.0463 256.727 88.3408 255.572 87.2455 254.344C85.7798 252.701 84.1727 251.7 82.4243 251.34C80.6758 250.981 78.9536 251.557 77.2577 253.07L73.1238 256.758L73.3603 257.023C73.9361 256.922 74.687 256.839 75.6129 256.774C76.5221 256.709 77.5393 256.88 78.6646 257.288C79.7732 257.695 80.9185 258.561 82.1005 259.886C83.5662 261.529 84.4936 263.35 84.8825 265.351C85.2636 267.343 85.051 269.381 84.2448 271.464C83.4306 273.539 81.9636 275.522 79.8437 277.413C77.7591 279.273 75.6169 280.526 73.4171 281.171C71.2084 281.825 69.097 281.877 67.0828 281.326C65.0597 280.783 63.2838 279.655 61.7551 277.941C60.5731 276.616 59.8562 275.368 59.6044 274.197C59.3358 273.025 59.2946 271.983 59.4808 271.071C59.6502 270.158 59.8091 269.43 59.9575 268.885L59.6738 268.567L56.441 271.451L53.746 268.43L74.6801 249.754C76.429 248.194 78.2058 247.323 80.0103 247.141C81.8157 246.942 83.5695 247.281 85.2717 248.157C86.9749 249.017 88.5515 250.26 90.0014 251.885ZM78.9134 261.968C77.7944 260.713 76.5618 259.909 75.2154 259.556C73.869 259.203 72.456 259.281 70.9765 259.792C69.497 260.303 68.0064 261.228 66.5048 262.568C65.0386 263.876 63.9415 265.251 63.2138 266.694C62.486 268.136 62.1902 269.574 62.3265 271.007C62.4628 272.44 63.0983 273.792 64.233 275.064C65.415 276.389 66.7357 277.194 68.195 277.478C69.6464 277.754 71.1345 277.608 72.6591 277.041C74.1758 276.465 75.6232 275.563 77.0011 274.334C78.4144 273.073 79.4673 271.737 80.1597 270.326C80.8355 268.914 81.0924 267.495 80.9306 266.069C80.7521 264.642 80.0797 263.275 78.9134 261.968Z" fill="black"/>
<path d="M67.796 240.067L44.2331 253.8L42.1231 250.18L65.686 236.447L67.796 240.067ZM39.2331 254.248C39.6443 254.954 39.7587 255.702 39.576 256.494C39.3874 257.275 38.9556 257.863 38.2806 258.256C37.6057 258.649 36.8818 258.736 36.1091 258.515C35.3304 258.283 34.7354 257.815 34.3241 257.109C33.9129 256.404 33.8015 255.66 33.9901 254.879C34.1728 254.087 34.6016 253.495 35.2766 253.102C35.9516 252.708 36.6784 252.627 37.4571 252.858C38.2298 253.079 38.8218 253.543 39.2331 254.248Z" fill="black"/>
<path d="M43.1668 227.644L58.684 222.317L60.0447 226.28L34.2499 235.136L32.9353 231.307L36.9657 229.923L36.8504 229.587C35.3329 229.433 33.9654 228.876 32.7477 227.917C31.5188 226.962 30.5699 225.511 29.9011 223.563C29.3014 221.817 29.135 220.165 29.4018 218.609C29.6574 217.057 30.3824 215.67 31.5768 214.446C32.76 213.226 34.4488 212.24 36.6431 211.486L53.0336 205.859L54.3943 209.822L38.2725 215.357C36.2461 216.053 34.8482 217.121 34.0787 218.562C33.2981 220.006 33.223 221.647 33.8534 223.483C34.2877 224.748 34.9502 225.784 35.8409 226.592C36.7277 227.389 37.7954 227.893 39.0438 228.102C40.2922 228.312 41.6666 228.159 43.1668 227.644Z" fill="black"/>
<path d="M50.4268 182.832C50.599 185.454 50.1687 187.754 49.136 189.732C48.0908 191.698 46.5565 193.264 44.5334 194.429C42.4976 195.583 40.0859 196.251 37.2983 196.434C34.5108 196.617 32.0206 196.271 29.8278 195.395C27.6224 194.507 25.8631 193.187 24.5499 191.435C23.2241 189.671 22.4806 187.561 22.3193 185.104C22.2262 183.687 22.3705 182.272 22.7523 180.859C23.134 179.446 23.8191 178.138 24.8077 176.934C25.7845 175.731 27.119 174.736 28.8111 173.948C30.5032 173.161 32.619 172.684 35.1585 172.517L36.9303 172.401L38.3077 193.379L34.6933 193.616L33.5951 176.891C32.0596 176.991 30.7096 177.389 29.5451 178.082C28.3799 178.763 27.4857 179.688 26.8625 180.856C26.2385 182.012 25.9761 183.346 26.0754 184.858C26.1847 186.523 26.6928 187.937 27.5995 189.099C28.4936 190.251 29.6175 191.108 30.9713 191.672C32.325 192.235 33.752 192.468 35.252 192.369L37.6616 192.211C39.7169 192.076 41.4358 191.607 42.8185 190.805C44.1886 189.991 45.2038 188.922 45.8642 187.598C46.5128 186.274 46.7816 184.768 46.6707 183.078C46.5985 181.98 46.3798 180.998 46.0146 180.132C45.6367 179.255 45.1134 178.513 44.4448 177.904C43.7643 177.296 42.9399 176.846 41.9717 176.554L42.8404 172.44C44.2385 172.775 45.4902 173.411 46.5956 174.347C47.6891 175.283 48.5737 176.471 49.2494 177.909C49.9134 179.348 50.3058 180.989 50.4268 182.832Z" fill="black"/>
<path d="M43.2907 138.08C41.4408 137.417 40.0765 136.558 39.1979 135.503C38.3192 134.448 37.8163 133.321 37.6892 132.12C37.5662 130.909 37.7187 129.739 38.1468 128.61C38.575 127.481 39.2143 126.546 40.065 125.805C40.9087 125.049 42.0851 124.267 43.594 123.46C44.613 122.909 45.3587 122.445 45.8311 122.067C46.3077 121.678 46.6573 121.19 46.8797 120.604C47.2407 119.652 47.183 118.769 46.7066 117.956C46.2192 117.138 45.3128 116.49 43.9873 116.013L45.3472 112.427C47.197 113.09 48.5613 113.95 49.4399 115.004C50.3228 116.048 50.8257 117.176 50.9486 118.387C51.0716 119.598 50.9191 120.768 50.491 121.897C50.0628 123.026 49.429 123.963 48.5895 124.708C47.7388 125.449 46.5569 126.229 45.0438 127.048C44.029 127.587 43.2833 128.051 42.8067 128.44C42.3301 128.829 41.9805 129.317 41.7581 129.903C41.4181 130.8 41.4523 131.661 41.8607 132.487C42.2623 133.298 43.1922 133.967 44.6505 134.494L43.2907 138.08Z" fill="black"/>
<path d="M40.5906 84.7955L71.0398 104.674L68.6326 108.361L38.1834 88.4827L40.5906 84.7955Z" fill="black"/>
<path d="M69.6548 79.6116L81.2845 91.1838L78.3288 94.1541L58.9963 74.9173L61.8518 72.0476L64.8725 75.0534L65.123 74.8017C64.5921 73.3717 64.488 71.8988 64.8107 70.383C65.125 68.8589 66.0085 67.3668 67.4613 65.9068C68.7638 64.5978 70.1719 63.7196 71.6858 63.2723C73.1913 62.8166 74.7566 62.8545 76.3818 63.3862C77.9985 63.9095 79.6292 64.9894 81.2738 66.6258L93.558 78.8492L90.6023 81.8196L78.5195 69.7966C77.0008 68.2854 75.4252 67.5025 73.7929 67.4479C72.1522 67.385 70.6472 68.0416 69.2779 69.4177C68.3345 70.3659 67.6967 71.4179 67.3648 72.5738C67.0412 73.7214 67.0609 74.9015 67.4238 76.1143C67.7867 77.327 68.5304 78.4928 69.6548 79.6116Z" fill="black"/>
<path d="M108.854 43.5771L106.156 46.4103C105.633 45.9908 105.022 45.6439 104.323 45.3694C103.629 45.0788 102.846 44.9642 101.975 45.0257C101.103 45.0872 100.143 45.4283 99.0935 46.0489C97.6569 46.8985 96.6556 47.9377 96.0896 49.1664C95.5277 50.3789 95.545 51.4894 96.1416 52.4981C96.6718 53.3947 97.4167 53.91 98.3761 54.0439C99.3354 54.1779 100.61 54.0083 102.201 53.5352L106.192 52.3303C108.592 51.5984 110.617 51.4529 112.266 51.8937C113.91 52.3243 115.217 53.3598 116.187 55.0002C116.982 56.3451 117.306 57.7763 117.159 59.2939C117.021 60.8054 116.446 62.2736 115.432 63.6984C114.418 65.1232 112.999 66.3749 111.175 67.4535C108.781 68.8696 106.492 69.522 104.308 69.4107C102.125 69.2994 100.233 68.3688 98.6345 66.6189L101.552 63.7384C102.625 64.809 103.802 65.392 105.082 65.4874C106.373 65.5767 107.757 65.1846 109.234 64.3108C110.915 63.3166 112.039 62.1706 112.605 60.8729C113.176 59.559 113.163 58.3977 112.567 57.389C112.084 56.5739 111.395 56.06 110.5 55.8473C109.598 55.6243 108.474 55.7248 107.13 56.1487L102.675 57.5456C100.224 58.3077 98.1776 58.452 96.5363 57.9788C94.899 57.4893 93.6014 56.4346 92.6433 54.8146C91.8599 53.4901 91.5388 52.0985 91.68 50.6397C91.8314 49.175 92.3823 47.7696 93.3328 46.4235C94.2935 45.0715 95.5991 43.9074 97.2496 42.9312C99.5726 41.5573 101.698 40.9881 103.625 41.2236C105.562 41.4531 107.305 42.2376 108.854 43.5771Z" fill="black"/>
<path d="M132.561 67.0008L122.323 30.9253L126.218 29.8201L127.401 33.9879L127.879 33.8522C128.046 33.3127 128.291 32.6156 128.614 31.7609C128.946 30.8916 129.528 30.0374 130.36 29.1983C131.201 28.3445 132.475 27.6753 134.183 27.1905C136.393 26.5636 138.497 26.5633 140.495 27.1896C142.494 27.8159 144.254 29.0084 145.774 30.7672C147.294 32.5259 148.446 34.7832 149.228 37.5389C150.016 40.3175 150.227 42.86 149.86 45.1666C149.491 47.4618 148.627 49.4049 147.27 50.9959C145.909 52.5755 144.136 53.6756 141.949 54.2961C140.264 54.7743 138.835 54.8783 137.664 54.6079C136.488 54.3261 135.526 53.9041 134.776 53.3418C134.022 52.7681 133.43 52.2842 132.998 51.8899L132.656 51.9869L136.592 65.8568L132.561 67.0008ZM130.009 42.9191C130.571 44.9005 131.358 46.5661 132.368 47.9158C133.376 49.2541 134.559 50.192 135.917 50.7293C137.272 51.2553 138.758 51.2888 140.375 50.83C142.06 50.3517 143.341 49.5085 144.216 48.3003C145.099 47.0776 145.611 45.6281 145.751 43.952C145.898 42.2613 145.707 40.4821 145.177 38.6146C144.654 36.7698 143.897 35.188 142.908 33.8693C141.926 32.5358 140.744 31.598 139.359 31.0557C137.983 30.4988 136.441 30.4627 134.733 30.9475C133.093 31.4128 131.833 32.2195 130.953 33.3675C130.07 34.504 129.553 35.8933 129.404 37.5353C129.252 39.1658 129.453 40.9604 130.009 42.9191Z" fill="black"/>
<path d="M163.635 49.7268L161.571 22.5323L165.749 22.2152L167.814 49.4097L163.635 49.7268ZM163.352 17.8387C162.537 17.9005 161.814 17.6764 161.182 17.1665C160.561 16.6556 160.221 16.0107 160.162 15.2317C160.103 14.4527 160.342 13.7638 160.878 13.1652C161.426 12.5656 162.107 12.235 162.922 12.1731C163.736 12.1113 164.453 12.3358 165.074 12.8467C165.706 13.3566 166.052 14.0011 166.111 14.7801C166.17 15.5591 165.926 16.2484 165.378 16.848C164.841 17.4466 164.166 17.7768 163.352 17.8387Z" fill="black"/>
<path d="M179.649 49.1498L181.816 21.9633L185.852 22.285L185.524 26.3913L185.807 26.4139C186.41 25.1082 187.394 24.0882 188.759 23.3539C190.123 22.6196 191.62 22.3173 193.248 22.4471C193.555 22.4716 193.938 22.5081 194.397 22.5566C194.857 22.605 195.203 22.6505 195.438 22.6929L195.099 26.9408C194.96 26.8941 194.64 26.8151 194.138 26.7039C193.649 26.5818 193.127 26.4986 192.573 26.4544C191.251 26.3491 190.049 26.5323 188.967 27.0041C187.897 27.4651 187.022 28.1554 186.343 29.075C185.677 29.9837 185.295 31.0517 185.197 32.2788L183.826 49.4828L179.649 49.1498Z" fill="black"/>
<path d="M212.906 55.5526C210.398 54.7684 208.408 53.5384 206.935 51.8625C205.477 50.1788 204.569 48.1835 204.211 45.8765C203.868 43.5617 204.114 41.0711 204.948 38.4049C205.781 35.7386 207.002 33.5405 208.609 31.8107C210.231 30.0731 212.096 28.9076 214.204 28.314C216.327 27.7127 218.564 27.7794 220.913 28.5141C222.269 28.938 223.537 29.5825 224.718 30.4477C225.898 31.3129 226.872 32.4235 227.639 33.7794C228.409 35.124 228.856 36.7274 228.981 38.5895C229.106 40.4516 228.788 42.5972 228.029 45.0262L227.499 46.7209L207.434 40.4474L208.515 36.9903L224.513 41.9921C224.972 40.5234 225.088 39.121 224.861 37.7849C224.645 36.4524 224.105 35.2851 223.24 34.2829C222.386 33.2843 221.236 32.5589 219.79 32.1068C218.197 31.6087 216.695 31.5732 215.284 32.0002C213.888 32.4195 212.683 33.159 211.67 34.2188C210.656 35.2785 209.925 36.5258 209.477 37.9606L208.756 40.2654C208.142 42.2312 207.959 44.0036 208.21 45.5826C208.475 47.1538 209.107 48.486 210.104 49.5793C211.105 50.6612 212.414 51.4548 214.029 51.9599C215.08 52.2884 216.075 52.4383 217.014 52.4094C217.968 52.3729 218.849 52.1523 219.658 51.7478C220.47 51.332 221.187 50.7252 221.809 49.9273L225.333 52.22C224.517 53.4034 223.473 54.342 222.202 55.036C220.934 55.7186 219.508 56.116 217.922 56.228C216.341 56.3288 214.669 56.1036 212.906 55.5526Z" fill="black"/>
<path d="M257.223 65.0201C258.508 63.5335 259.801 62.5705 261.102 62.1309C262.402 61.6913 263.635 61.6284 264.801 61.9423C265.975 62.264 267.012 62.8279 267.911 63.634C268.809 64.4402 269.451 65.3734 269.836 66.4339C270.237 67.4934 270.543 68.8724 270.752 70.5711C270.899 71.7199 271.063 72.5827 271.245 73.1596C271.436 73.7443 271.765 74.2462 272.232 74.665C272.99 75.3447 273.835 75.6089 274.765 75.4577C275.704 75.2977 276.634 74.6855 277.557 73.621L280.412 76.1816C279.127 77.6682 277.834 78.6312 276.533 79.0708C275.242 79.5183 274.009 79.5811 272.834 79.2594C271.66 78.9377 270.624 78.3738 269.725 77.5676C268.826 76.7615 268.18 75.8327 267.788 74.781C267.403 73.7206 267.101 72.3372 266.883 70.6306C266.745 69.4897 266.581 68.6269 266.39 68.0421C266.199 67.4573 265.87 66.9555 265.403 66.5367C264.689 65.8965 263.873 65.6181 262.956 65.7016C262.055 65.7841 261.096 66.4105 260.078 67.5807L257.223 65.0201Z" fill="black"/>
<path d="M307.902 81.7002L278.387 102.942L275.815 99.3679L305.329 78.1262L307.902 81.7002Z" fill="black"/>
<path d="M302.265 110.68L287.28 117.359L285.574 113.532L310.485 102.429L312.133 106.127L308.241 107.861L308.385 108.186C309.91 108.206 311.322 108.639 312.619 109.487C313.928 110.329 315.002 111.691 315.84 113.572C316.592 115.259 316.904 116.889 316.775 118.462C316.658 120.031 316.059 121.477 314.977 122.801C313.907 124.121 312.312 125.253 310.193 126.198L294.364 133.253L292.658 129.425L308.227 122.486C310.184 121.614 311.482 120.426 312.121 118.923C312.771 117.415 312.701 115.775 311.91 114.002C311.366 112.78 310.614 111.806 309.656 111.08C308.702 110.364 307.594 109.958 306.332 109.859C305.07 109.761 303.714 110.034 302.265 110.68Z" fill="black"/>
<path d="M314.658 146.195L298.447 148.713L297.803 144.573L324.753 140.386L325.374 144.386L321.163 145.04L321.218 145.391C322.685 145.81 323.933 146.598 324.963 147.756C326.005 148.912 326.685 150.507 327.001 152.543C327.284 154.367 327.158 156.022 326.622 157.507C326.098 158.99 325.14 160.229 323.75 161.223C322.37 162.216 320.535 162.891 318.242 163.247L301.118 165.908L300.475 161.767L317.318 159.15C319.435 158.821 320.999 158.015 322.01 156.732C323.032 155.447 323.394 153.846 323.096 151.927C322.891 150.606 322.42 149.469 321.686 148.517C320.952 147.577 319.99 146.894 318.798 146.468C317.606 146.042 316.226 145.951 314.658 146.195Z" fill="black"/>
<path d="M299.678 188.682C299.951 186.235 300.773 184.153 302.143 182.435C303.513 180.73 305.302 179.476 307.511 178.675C309.719 177.885 312.223 177.646 315.023 177.958C317.847 178.273 320.254 179.059 322.246 180.317C324.236 181.587 325.712 183.205 326.672 185.17C327.631 187.147 327.973 189.359 327.701 191.806C327.428 194.253 326.607 196.329 325.238 198.034C323.867 199.751 322.072 201.004 319.852 201.793C317.631 202.593 315.108 202.836 312.285 202.522C309.485 202.209 307.096 201.419 305.117 200.15C303.137 198.893 301.668 197.276 300.709 195.3C299.749 193.335 299.405 191.129 299.678 188.682ZM303.419 189.099C303.212 190.957 303.518 192.54 304.337 193.846C305.156 195.152 306.31 196.18 307.799 196.93C309.287 197.679 310.938 198.155 312.749 198.357C314.561 198.559 316.281 198.459 317.91 198.057C319.539 197.655 320.903 196.908 322.001 195.815C323.1 194.723 323.752 193.247 323.96 191.389C324.167 189.53 323.855 187.947 323.024 186.639C322.193 185.332 321.028 184.302 319.527 183.552C318.027 182.801 316.371 182.324 314.559 182.122C312.747 181.92 311.033 182.021 309.416 182.424C307.799 182.828 306.447 183.576 305.36 184.67C304.273 185.764 303.627 187.24 303.419 189.099Z" fill="black"/>
<path d="M313.633 241.341L291.826 222.107L293.361 218.131L322.436 218.55L320.798 222.79L297.812 221.982L297.71 222.247L315.27 237.101L313.633 241.341Z" fill="black"/>
<path d="M278.457 245.665C279.464 244.261 280.643 243.177 281.993 242.412C283.353 241.654 284.779 241.3 286.272 241.352C287.775 241.41 289.247 241.957 290.69 242.992C291.959 243.903 292.809 244.891 293.239 245.957C293.678 247.03 293.824 248.147 293.675 249.308C293.527 250.469 293.201 251.634 292.698 252.802C292.197 253.988 291.645 255.143 291.041 256.269C290.248 257.739 289.595 258.924 289.081 259.823C288.57 260.738 288.287 261.468 288.232 262.011C288.171 262.564 288.414 263.037 288.962 263.431L289.077 263.513C290.501 264.535 291.886 264.939 293.234 264.726C294.575 264.522 295.807 263.636 296.932 262.069C298.098 260.443 298.657 258.914 298.608 257.48C298.558 256.046 298.264 254.852 297.726 253.897L301.198 251.493C302.131 253.037 302.627 254.558 302.687 256.058C302.75 257.575 302.52 259.012 301.997 260.371C301.477 261.746 300.816 262.991 300.016 264.106C299.505 264.818 298.832 265.574 297.996 266.373C297.163 267.188 296.177 267.842 295.036 268.335C293.889 268.838 292.584 269.002 291.122 268.827C289.659 268.651 288.048 267.932 286.288 266.67L271.689 256.194L274.132 252.79L277.132 254.943L277.257 254.77C276.941 254.194 276.703 253.44 276.541 252.508C276.379 251.576 276.427 250.525 276.684 249.354C276.941 248.184 277.532 246.954 278.457 245.665ZM281.142 248.379C280.176 249.726 279.626 251.05 279.493 252.353C279.353 253.666 279.532 254.858 280.03 255.929C280.522 257.011 281.229 257.882 282.153 258.545L285.269 260.781C285.199 260.512 285.268 260.081 285.476 259.487C285.686 258.909 285.966 258.265 286.316 257.555C286.668 256.861 287.02 256.188 287.371 255.536C287.725 254.901 288.008 254.384 288.223 253.984C288.742 253.016 289.148 252.055 289.44 251.099C289.735 250.16 289.797 249.272 289.626 248.435C289.457 247.614 288.939 246.893 288.074 246.272C286.891 245.423 285.683 245.219 284.449 245.66C283.217 246.117 282.115 247.023 281.142 248.379Z" fill="black"/>
<path d="M272.551 293.151L270.186 290.502L280.73 281.09L283.095 283.739L272.551 293.151ZM284.373 291.357L281.247 294.147L263.937 274.755C263.149 273.872 262.43 273.324 261.779 273.111C261.128 272.915 260.533 272.923 259.992 273.135C259.451 273.364 258.951 273.684 258.492 274.094C258.147 274.401 257.881 274.671 257.691 274.903C257.51 275.145 257.365 275.338 257.256 275.482L254.114 273.242C254.255 272.973 254.48 272.629 254.788 272.211C255.089 271.784 255.531 271.31 256.114 270.79C256.997 270.002 258.032 269.419 259.219 269.042C260.397 268.673 261.61 268.629 262.86 268.909C264.102 269.197 265.25 269.933 266.307 271.117L284.373 291.357Z" fill="black"/>
<path d="M235.636 284.531C237.936 283.26 240.2 282.67 242.429 282.763C244.654 282.871 246.723 283.593 248.639 284.928C250.549 286.279 252.181 288.177 253.533 290.622C254.885 293.066 255.631 295.467 255.772 297.824C255.907 300.198 255.462 302.351 254.435 304.285C253.404 306.236 251.811 307.807 249.656 308.998C248.413 309.686 247.071 310.158 245.63 310.414C244.189 310.67 242.713 310.607 241.203 310.224C239.699 309.853 238.23 309.069 236.798 307.872C235.365 306.676 234.033 304.965 232.801 302.738L231.942 301.184L250.338 291.009L252.091 294.178L237.424 302.291C238.169 303.638 239.103 304.69 240.226 305.449C241.338 306.213 242.556 306.629 243.878 306.696C245.189 306.768 246.508 306.438 247.834 305.705C249.295 304.897 250.358 303.835 251.024 302.52C251.685 301.221 251.982 299.839 251.916 298.374C251.85 296.909 251.453 295.519 250.725 294.204L249.557 292.09C248.56 290.288 247.404 288.932 246.089 288.023C244.77 287.129 243.37 286.665 241.891 286.632C240.417 286.608 238.939 287.006 237.458 287.825C236.495 288.358 235.699 288.974 235.071 289.673C234.439 290.388 233.989 291.178 233.723 292.042C233.463 292.916 233.407 293.854 233.554 294.854L229.462 295.819C229.17 294.412 229.212 293.008 229.588 291.61C229.97 290.222 230.668 288.916 231.683 287.692C232.702 286.479 234.02 285.425 235.636 284.531Z" fill="black"/>
<path d="M218.313 305.036C218.793 306.942 218.84 308.554 218.454 309.871C218.068 311.188 217.412 312.234 216.486 313.009C215.549 313.786 214.492 314.312 213.316 314.585C212.14 314.859 211.008 314.849 209.919 314.556C208.821 314.277 207.516 313.736 206.004 312.933C204.979 312.394 204.178 312.034 203.601 311.852C203.013 311.673 202.413 311.655 201.802 311.797C200.81 312.028 200.11 312.567 199.699 313.416C199.292 314.277 199.26 315.391 199.602 316.757L195.867 317.627C195.387 315.721 195.34 314.109 195.726 312.792C196.1 311.477 196.756 310.431 197.693 309.654C198.631 308.877 199.687 308.351 200.863 308.078C202.039 307.804 203.17 307.808 204.257 308.09C205.346 308.383 206.652 308.93 208.175 309.73C209.189 310.272 209.99 310.632 210.578 310.811C211.167 310.99 211.767 311.008 212.378 310.866C213.311 310.649 214.007 310.14 214.465 309.341C214.915 308.556 214.952 307.411 214.577 305.906L218.313 305.036Z" fill="black"/>
</svg>
