<svg width="2743" height="436" viewBox="0 0 2743 436" fill="none" xmlns="http://www.w3.org/2000/svg">
<g clip-path="url(#clip0_14_276)">
<path d="M237 67C141.61 67 64 142.36 64 235C64 282.35 84.27 325.19 116.84 355.75H140.08C102.93 327.73 79 284.02 79 235C79 150.64 149.88 82 237 82C324.12 82 395 150.64 395 235C395 284.02 371.07 327.73 333.92 355.75H357.16C389.73 325.19 410 282.35 410 235C410 142.36 332.39 67 237 67Z" fill="#FF7F00"/>
<path d="M411.25 394.28C451.79 350.77 474 294.58 474 235C474 172.22 449.34 113.19 404.56 68.81C359.8 24.44 300.29 0 237 0C173.71 0 114.2 24.44 69.44 68.81C24.66 113.19 0 172.22 0 235C0 291.83 20.21 345.58 57.25 388.18V363.97C30.68 327.71 15 283.13 15 235C15 113.69 114.59 15 237 15C359.41 15 459 113.69 459 235C459 286.37 441.14 333.68 411.25 371.16V394.28Z" fill="#FF7F00"/>
<path d="M291.75 178.75C306.39 178.75 318.25 166.89 318.25 152.25C318.25 137.61 306.39 125.75 291.75 125.75C287.31 125.75 283.13 126.85 279.45 128.78C279.45 128.78 279.41 128.8 279.33 128.84C279.22 128.9 279.11 128.96 279 129.02C274.5 131.47 237.43 153.39 240.24 209.76C240.24 217.76 244.24 217.76 248.24 211.76C252.24 205.76 270.25 179.75 291.75 178.75Z" fill="#009B66"/>
<path d="M358.39 223.6C356.12 219.79 353.04 216.75 349.5 214.58C349.5 214.58 349.46 214.56 349.39 214.51C349.28 214.44 349.18 214.38 349.07 214.32C344.66 211.71 306.86 191.07 259.87 222.33C253 226.42 255.04 229.86 262.24 230.23C269.44 230.6 300.99 232.76 312.85 250.72C320.34 263.29 336.6 267.42 349.18 259.93C361.76 252.44 365.88 236.17 358.39 223.6Z" fill="#009B66"/>
<path d="M258.12 244.98C251.13 241.09 249.18 244.59 252.48 251C255.78 257.41 269.76 285.78 260.18 305.05C253.07 317.84 257.67 333.98 270.46 341.09C283.25 348.2 299.39 343.6 306.5 330.81C308.66 326.93 309.73 322.74 309.83 318.59C309.83 318.59 309.83 318.54 309.83 318.46C309.83 318.33 309.84 318.21 309.84 318.08C309.9 312.97 308.76 269.91 258.12 244.98Z" fill="#009B66"/>
<path d="M230.67 252.71C226.73 258.75 209 284.94 187.52 286.16C172.89 286.31 161.14 298.3 161.3 312.93C161.45 327.56 173.44 339.31 188.07 339.15C192.51 339.1 196.68 337.96 200.33 336C200.33 336 200.37 335.98 200.44 335.94C200.55 335.88 200.66 335.82 200.77 335.76C205.24 333.27 242.09 310.96 238.68 254.62C238.61 246.62 234.61 246.67 230.67 252.71Z" fill="#009B66"/>
<path d="M218.65 242.77C225.47 238.59 223.38 235.18 216.18 234.9C208.97 234.62 177.4 232.86 165.31 215.05C157.66 202.57 141.35 198.65 128.87 206.3C116.39 213.95 112.47 230.26 120.12 242.74C122.44 246.53 125.56 249.52 129.13 251.64C129.13 251.64 129.17 251.66 129.24 251.71C129.35 251.77 129.46 251.84 129.56 251.9C133.99 254.47 172.06 274.63 218.65 242.77Z" fill="#009B66"/>
<path d="M219.92 220.59C226.96 224.38 228.86 220.86 225.48 214.5C222.1 208.14 207.74 179.95 217.06 160.55C224 147.67 219.18 131.59 206.3 124.65C193.42 117.71 177.34 122.53 170.4 135.41C168.29 139.32 167.28 143.52 167.23 147.67C167.23 147.67 167.23 147.72 167.23 147.8C167.23 147.93 167.23 148.05 167.23 148.18C167.25 153.3 168.96 196.33 219.92 220.59Z" fill="#009B66"/>
<path d="M133.52 435.43V429.13H137.77V374.74H133.52V368.44H150.04V374.74H145.79V429.13H150.04V435.43H133.52Z" fill="#009B66"/>
<path d="M144.8 373.74V430.13H149.05V434.43H134.53V430.13H138.78V373.74H134.53V369.44H149.05V373.74H144.8Z" fill="#009B66"/>
<path d="M187.36 435.43V429.13H191.61V374.74H187.36V368.44H203.88V374.74H199.63V429.13H203.88V435.43H187.36Z" fill="#009B66"/>
<path d="M198.63 373.74V430.13H202.88V434.43H188.36V430.13H192.61V373.74H188.36V369.44H202.88V373.74H198.63Z" fill="#009B66"/>
<path d="M241.2 435.43V429.13H245.45V374.74H241.2V368.44H257.72V374.74H253.47V429.13H257.72V435.43H241.2Z" fill="#009B66"/>
<path d="M252.47 373.74V430.13H256.72V434.43H242.2V430.13H246.45V373.74H242.2V369.44H256.72V373.74H252.47Z" fill="#009B66"/>
<path d="M305.14 435.43V429.13H309.38V375.31H292.63V381.24H285.82V368.44H340.98V381.24H334.16V375.31H317.41V429.13H321.65V435.43H305.14Z" fill="#009B66"/>
<path d="M310.38 374.31H291.63V380.24H286.81V369.44H339.97V380.24H335.15V374.31H316.4V430.13H320.65V434.43H306.13V430.13H310.38V374.31Z" fill="#009B66"/>
<path d="M548.11 141.94H584.87V328.16H548.11V141.94Z" fill="black"/>
<path d="M623.88 141.94H660.64V328.16H623.88V141.94Z" fill="black"/>
<path d="M699.65 141.94H736.41V328.16H699.65V141.94Z" fill="black"/>
<path d="M758.9 141.94H866.41V176.88H830.97V328.16H793.41V176.88H758.9V141.94Z" fill="black"/>
<path d="M967.57 328.16V141.94H998.15C1015.89 141.94 1028.87 143.04 1037.08 145.23C1048.73 148.19 1058 153.67 1064.88 161.69C1071.76 169.71 1075.21 179.16 1075.21 190.05C1075.21 197.14 1073.64 203.58 1070.52 209.36C1067.39 215.14 1062.3 220.56 1055.25 225.63C1067.06 230.95 1075.7 237.59 1081.17 245.57C1086.64 253.55 1089.37 262.98 1089.37 273.86C1089.37 284.33 1086.55 293.86 1080.9 302.47C1075.25 311.08 1067.97 317.51 1059.06 321.78C1050.15 326.04 1037.83 328.17 1022.13 328.17H967.57V328.16ZM1004.6 175.74V214.98H1012.7C1021.73 214.98 1028.43 213.17 1032.81 209.54C1037.19 205.91 1039.38 200.98 1039.38 194.73C1039.38 188.91 1037.3 184.29 1033.14 180.87C1028.98 177.45 1022.65 175.74 1014.16 175.74H1004.6ZM1004.6 246.63V294.36H1013.88C1029.26 294.36 1039.63 292.5 1044.97 288.79C1050.32 285.08 1052.99 279.67 1052.99 272.59C1052.99 264.57 1049.85 258.24 1043.57 253.6C1037.29 248.96 1026.86 246.64 1012.28 246.64H1004.6V246.63Z" fill="black"/>
<path d="M1120.83 137.25H1156.67V204.34C1163.72 198.52 1170.82 194.15 1177.96 191.24C1185.1 188.33 1192.33 186.87 1199.65 186.87C1213.93 186.87 1225.97 191.6 1235.75 201.05C1244.12 209.24 1248.31 221.26 1248.31 237.13V328.15H1212.74V267.77C1212.74 251.82 1211.95 241.02 1210.36 235.36C1208.77 229.71 1206.06 225.48 1202.23 222.7C1198.4 219.92 1193.65 218.52 1188.01 218.52C1180.69 218.52 1174.41 220.84 1169.17 225.48C1163.92 230.12 1160.29 236.45 1158.26 244.47C1157.2 248.61 1156.67 258.06 1156.67 272.83V328.15H1120.83V137.25Z" fill="black"/>
<path d="M1283.22 190.42H1301.73V254.73C1301.73 270.43 1302.61 281.23 1304.38 287.14C1307.03 295.58 1312.08 302.25 1319.54 307.14C1327 312.04 1335.89 314.48 1346.23 314.48C1356.56 314.48 1365.32 312.1 1372.52 307.33C1379.72 302.56 1384.68 296.3 1387.42 288.53C1389.27 283.21 1390.2 271.95 1390.2 254.73V190.42H1409.11V258.02C1409.11 277.01 1406.8 291.31 1402.17 300.94C1397.54 310.56 1390.58 318.09 1381.28 323.54C1371.98 328.98 1360.32 331.71 1346.3 331.71C1332.28 331.71 1320.58 328.99 1311.19 323.54C1301.8 318.1 1294.79 310.5 1290.16 300.75C1285.53 291 1283.22 276.34 1283.22 256.76V190.42Z" fill="black"/>
<path d="M1451.43 328.16V137.26H1469.94V214.1C1477.69 204.99 1486.36 198.17 1495.96 193.66C1505.56 189.15 1516.08 186.89 1527.53 186.89C1547.87 186.89 1565.24 193.96 1579.64 208.09C1594.04 222.23 1601.24 239.38 1601.24 259.55C1601.24 279.47 1593.97 296.47 1579.44 310.57C1564.91 324.67 1547.43 331.71 1527 331.71C1515.29 331.71 1504.67 329.3 1495.16 324.49C1485.65 319.68 1477.24 312.46 1469.93 302.84V328.16H1451.43ZM1525.48 314.61C1535.77 314.61 1545.27 312.19 1553.98 307.33C1562.69 302.48 1569.61 295.66 1574.76 286.88C1579.9 278.1 1582.48 268.82 1582.48 259.03C1582.48 249.24 1579.88 239.91 1574.7 231.05C1569.51 222.19 1562.54 215.29 1553.79 210.35C1545.04 205.41 1535.69 202.94 1525.76 202.94C1515.64 202.94 1506.04 205.41 1496.93 210.35C1487.82 215.29 1480.83 221.93 1475.95 230.29C1471.07 238.65 1468.63 248.06 1468.63 258.52C1468.63 274.47 1474.1 287.81 1485.05 298.52C1496 309.25 1509.47 314.61 1525.48 314.61Z" fill="black"/>
<path d="M1778.32 190.42V328.15H1760.07V304.48C1752.31 313.51 1743.61 320.3 1733.95 324.86C1724.3 329.42 1713.74 331.7 1702.28 331.7C1681.92 331.7 1664.53 324.63 1650.11 310.49C1635.7 296.36 1628.49 279.16 1628.49 258.9C1628.49 239.07 1635.76 222.11 1650.31 208.01C1664.86 193.92 1682.35 186.87 1702.81 186.87C1714.62 186.87 1725.31 189.28 1734.88 194.09C1744.44 198.9 1752.84 206.12 1760.07 215.74V190.42H1778.32ZM1704.34 203.97C1694.04 203.97 1684.53 206.4 1675.81 211.24C1667.09 216.09 1660.16 222.9 1655.01 231.66C1649.86 240.43 1647.28 249.7 1647.28 259.48C1647.28 269.18 1649.88 278.45 1655.07 287.3C1660.27 296.15 1667.24 303.04 1676.01 307.97C1684.77 312.9 1694.17 315.37 1704.21 315.37C1714.34 315.37 1723.93 312.93 1733 308.04C1742.07 303.15 1749.05 296.53 1753.93 288.19C1758.82 279.85 1761.26 270.44 1761.26 259.99C1761.26 244.06 1755.78 230.74 1744.81 220.03C1733.86 209.32 1720.36 203.97 1704.34 203.97Z" fill="black"/>
<path d="M1819.98 190.42H1838.49V215.11C1845.9 205.66 1854.09 198.59 1863.09 193.91C1872.09 189.23 1881.87 186.88 1892.45 186.88C1903.2 186.88 1912.75 189.5 1921.08 194.73C1929.41 199.96 1935.56 207.01 1939.53 215.87C1943.5 224.73 1945.48 238.53 1945.48 257.27V328.16H1926.97V262.46C1926.97 246.59 1926.28 236 1924.91 230.68C1922.77 221.57 1918.65 214.71 1912.57 210.11C1906.49 205.51 1898.55 203.21 1888.76 203.21C1877.56 203.21 1867.53 206.75 1858.67 213.84C1849.81 220.93 1843.97 229.71 1841.15 240.17C1839.39 247.01 1838.51 259.5 1838.51 277.64V328.15H1820V190.42H1819.98Z" fill="black"/>
<path d="M2106.28 282.46L2121.88 290.31C2116.76 299.93 2110.85 307.7 2104.14 313.6C2097.43 319.51 2089.89 324 2081.51 327.08C2073.13 330.16 2063.64 331.7 2053.05 331.7C2029.58 331.7 2011.22 324.34 1997.99 309.61C1984.75 294.88 1978.14 278.24 1978.14 259.67C1978.14 242.2 1983.74 226.63 1994.95 212.96C2009.16 195.58 2028.17 186.88 2052 186.88C2076.53 186.88 2096.12 195.78 2110.77 213.59C2121.18 226.17 2126.48 241.86 2126.65 260.68H1997.19C1997.54 276.68 2002.88 289.79 2013.21 300.02C2023.54 310.25 2036.29 315.36 2051.47 315.36C2058.79 315.36 2065.92 314.14 2072.85 311.7C2079.78 309.26 2085.67 306.03 2090.52 301.99C2095.37 297.95 2100.63 291.45 2106.28 282.46ZM2106.28 245.36C2103.81 235.91 2100.21 228.36 2095.49 222.7C2090.77 217.05 2084.52 212.49 2076.76 209.03C2068.99 205.57 2060.83 203.84 2052.27 203.84C2038.15 203.84 2026.01 208.19 2015.86 216.88C2008.44 223.21 2002.84 232.7 1999.05 245.36H2106.28Z" fill="black"/>
<path d="M2233.49 205.49L2221.59 217.26C2211.69 208.06 2202.01 203.46 2192.55 203.46C2186.54 203.46 2181.39 205.36 2177.1 209.16C2172.81 212.96 2170.67 217.39 2170.67 222.45C2170.67 226.92 2172.44 231.18 2175.97 235.24C2179.5 239.38 2186.93 244.23 2198.23 249.8C2212.01 256.64 2221.38 263.22 2226.32 269.55C2231.18 275.97 2233.61 283.18 2233.61 291.2C2233.61 302.51 2229.46 312.09 2221.16 319.94C2212.86 327.79 2202.49 331.71 2190.04 331.71C2181.74 331.71 2173.81 329.98 2166.27 326.52C2158.72 323.06 2152.47 318.29 2147.53 312.22L2159.17 299.56C2168.63 309.77 2178.65 314.88 2189.26 314.88C2196.68 314.88 2203 312.6 2208.21 308.04C2213.42 303.48 2216.03 298.12 2216.03 291.96C2216.03 286.9 2214.31 282.38 2210.86 278.41C2207.41 274.53 2199.64 269.63 2187.54 263.73C2174.55 257.32 2165.72 250.99 2161.04 244.74C2156.36 238.5 2154.02 231.36 2154.02 223.35C2154.02 212.89 2157.75 204.19 2165.21 197.27C2172.67 190.35 2182.1 186.89 2193.49 186.89C2206.73 186.88 2220.07 193.08 2233.49 205.49Z" fill="black"/>
<path d="M2246.85 190.42H2265.89L2309.99 290.43L2355.9 190.42H2359.26L2405.48 290.43L2450.43 190.42H2469.68L2407.18 328.15H2403.75L2357.75 229.53L2311.77 328.15H2308.32L2246.85 190.42Z" fill="black"/>
<path d="M2634.7 190.42V328.15H2616.45V304.48C2608.69 313.51 2599.99 320.3 2590.33 324.86C2580.68 329.42 2570.12 331.7 2558.66 331.7C2538.3 331.7 2520.91 324.63 2506.49 310.49C2492.08 296.36 2484.87 279.16 2484.87 258.9C2484.87 239.07 2492.14 222.11 2506.69 208.01C2521.24 193.92 2538.73 186.87 2559.19 186.87C2571 186.87 2581.69 189.28 2591.26 194.09C2600.82 198.9 2609.22 206.12 2616.45 215.74V190.42H2634.7ZM2560.71 203.97C2550.41 203.97 2540.9 206.4 2532.18 211.24C2523.46 216.09 2516.53 222.9 2511.38 231.66C2506.23 240.43 2503.65 249.7 2503.65 259.48C2503.65 269.18 2506.25 278.45 2511.44 287.3C2516.64 296.15 2523.61 303.04 2532.38 307.97C2541.14 312.9 2550.54 315.37 2560.58 315.37C2570.71 315.37 2580.3 312.93 2589.37 308.04C2598.44 303.15 2605.42 296.53 2610.3 288.19C2615.19 279.85 2617.63 270.44 2617.63 259.99C2617.63 244.06 2612.15 230.74 2601.18 220.03C2590.23 209.32 2576.74 203.97 2560.71 203.97Z" fill="black"/>
<path d="M2669.35 190.42H2688.26V210.55C2693.9 202.62 2699.85 196.69 2706.11 192.76C2712.37 188.84 2718.89 186.87 2725.68 186.87C2730.79 186.87 2736.26 188.43 2742.08 191.55L2732.43 206.49C2728.55 204.89 2725.29 204.08 2722.64 204.08C2716.47 204.08 2710.52 206.51 2704.79 211.36C2699.06 216.21 2694.69 223.75 2691.7 233.96C2689.41 241.81 2688.26 257.68 2688.26 281.56V328.15H2669.35V190.42Z" fill="black"/>
</g>
<defs>
<clipPath id="clip0_14_276">
<rect width="2742.12" height="435.98" fill="white"/>
</clipPath>
</defs>
</svg>
